# xmcd
#
# Track frame offsets:
#	150
#	19498
#	36999
#	55780
#	77349
#
# Disc length: 1300 seconds
#
# Revision: 0
# Processed by: cddbd v1.5.2PL0 Copyright (c) Steve Scherf et al.
# Submitted via: EasyCDDAExtractor 15.3.0.1
#
DISCID=35051205
DTITLE=Sin Bandera - Una Ultima Vez
DYEAR=2016
DGENRE=Latin
TTITLE0=Una Ultima Vez
TTITLE1=En Esta No
TTITLE2=Sobre Mi
TTITLE3=Y Mas Te Amo
TTITLE4=Para Siempre... Tal Vez
EXTD=
EXTT0=
EXTT1=
EXTT2=
EXTT3=
EXTT4=
PLAYORDER=
